<svg xmlns="http://www.w3.org/2000/svg" width="32" height="32" fill="none">
  <g clip-path="url(#a)">
    <rect width="32" height="32" fill="#0F172B" rx="4"/>
    <g filter="url(#b)">
      <path fill="url(#c)" d="M2.8 24.5V7.4h4.8v6.46h.12c.31-.84.79-1.5 1.44-1.95a4.19 4.19 0 0 1 2.44-.68c.95 0 1.75.2 2.41.59.66.38 1.16.94 1.5 1.68.34.73.52 1.62.52 2.66v8.34h-4.8v-7.29c0-.66-.16-1.17-.47-1.55-.3-.37-.74-.56-1.34-.56-.38 0-.7.1-.98.27a1.8 1.8 0 0 0-.63.75 2.6 2.6 0 0 0-.21 1.08v7.3H2.8Zm14.1 0V7.4h4.8v17.1h-4.8Zm8.13 0-3.1-5.23 3.1-3.65 5.52 8.88h-5.52Zm-3.68-3.3-.02-5h.5l3.13-4.68h5.29l-5.6 7.18-1.7.4-1.6 2.1Z"/>
    </g>
  </g>
  <defs>
    <linearGradient id="c" x1="2.5" x2="30.5" y1="16.5" y2="16.5" gradientUnits="userSpaceOnUse">
      <stop stop-color="#F6339A"/>
      <stop offset="1" stop-color="#E12AFB"/>
    </linearGradient>
    <clipPath id="a">
      <rect width="32" height="32" fill="#fff" rx="4"/>
    </clipPath>
    <filter id="b" width="37.16" height="26.51" x="-1.9" y="6.69" color-interpolation-filters="sRGB" filterUnits="userSpaceOnUse">
      <feFlood flood-opacity="0" result="BackgroundImageFix"/>
      <feColorMatrix in="SourceAlpha" result="hardAlpha" values="0 0 0 0 0 0 0 0 0 0 0 0 0 0 0 0 0 0 127 0"/>
      <feOffset dy="4"/>
      <feGaussianBlur stdDeviation="2.35"/>
      <feComposite in2="hardAlpha" operator="out"/>
      <feColorMatrix values="0 0 0 0 0 0 0 0 0 0 0 0 0 0 0 0 0 0 0.25 0"/>
      <feBlend in2="BackgroundImageFix" result="effect1_dropShadow_1_2"/>
      <feBlend in="SourceGraphic" in2="effect1_dropShadow_1_2" result="shape"/>
    </filter>
  </defs>
</svg>
